<?xml version="1.0" encoding="utf-8"?>
<!-- Generator: Adobe Illustrator 21.1.0, SVG Export Plug-In . SVG Version: 6.00 Build 0)  -->
<svg version="1.1" id="Layer_1" xmlns="http://www.w3.org/2000/svg" xmlns:xlink="http://www.w3.org/1999/xlink" x="0px" y="0px"
	 viewBox="0 0 378.2 378" style="enable-background:new 0 0 378.2 378;" xml:space="preserve">
<style type="text/css">
	.st0{fill:#010101;}
</style>
<g>
	<path class="st0" d="M244.9,137.9l16.3,0l0,26.7l45.7-46.9l-45.7-45.9l0,30.4l-16.3,0c-46.6,0-73,34.9-96.2,65.7
		c-20.9,27.7-38.9,53.8-68,53.8l-26.4,0l0,35.7l26.4,0c46.6,0,73-37.1,96.2-67.9C197.8,161.8,215.8,137.9,244.9,137.9z M122.6,158.3
		c2-2.6,4-5.2,6-7.9c5-6.5,10.1-13.5,15.8-20.4c-16.7-15.7-36.8-27.3-63.7-27.3l-26.4,0l0,35.7c0,0,7.5-0.3,26.4,0
		C99.1,138.8,110.6,146.3,122.6,158.3z M261.2,222l-16.3,0c-17.8,0-31.4-8.9-44.1-22.2c-1.2,1.7-2.5,3.4-3.8,5.1
		c-5.6,7.4-11.6,15.3-18.2,23.2c17.1,16.9,37.9,29.6,66.1,29.6h16.3l0,30.6l45.7-45.9l-45.7-46.9L261.2,222z"/>
</g>
</svg>
